<?xml version="1.0" encoding="utf-8"?>
<!-- Generator: Adobe Illustrator 18.0.0, SVG Export Plug-In . SVG Version: 6.00 Build 0)  -->
<!DOCTYPE svg PUBLIC "-//W3C//DTD SVG 1.1//EN" "http://www.w3.org/Graphics/SVG/1.1/DTD/svg11.dtd">
<svg version="1.1" id="Layer_1" xmlns="http://www.w3.org/2000/svg" xmlns:xlink="http://www.w3.org/1999/xlink" x="0px" y="0px"
	 viewBox="0 0 142.7 153.6" enable-background="new 0 0 142.7 153.6" xml:space="preserve">
<rect x="-17.9" y="-166.4" fill="#EBE8D7" width="303.2" height="332.8"/>
<g>
	<g id="Inner_Lines_1_17_">
		<g>
			<path fill="#DCDAD2" d="M49.2,73l-2.6-1.5L46.4,72l2.6,1.5L49.2,73z M52.3,71l-4-2.3L48,69.2l4,2.3L52.3,71z M40.8,81.6l4,2.3
				l0.3-0.5l-4-2.3L40.8,81.6z M47.5,70.1l-0.3,0.5l5.2,3l0.3-0.5L47.5,70.1z M45.6,73.4l4.7,2.7l0.3-0.5l-4.7-2.7L45.6,73.4z
				 M41.6,80.2l5.2,3l0.3-0.5l-5.2-3L41.6,80.2z"/>
		</g>
	</g>
	<g id="Inner_Lines_2_15_" opacity="0.149">
		<g>
			<path fill="#FFFFFF" d="M43.2,77.4l3.3,1.9l0.3-0.5l-3.3-1.9L43.2,77.4z M44.3,75.5L44,76l5.2,3l0.3-0.5L44.3,75.5z"/>
		</g>
	</g>
	<g id="Inner_Lines_3_2_">
		<g>
			<path fill="#DCDAD2" d="M52.8,68.5c0.1,0.1,0.3,0,0.4-0.1c0.1-0.1,0-0.3-0.1-0.4l-0.7-0.4c-0.1-0.1-0.3,0-0.4,0.1
				c-0.1,0.1,0,0.3,0.1,0.4L52.8,68.5z M51.8,67.6c0.1-0.1,0-0.3-0.1-0.4c-0.1-0.1-0.3,0-0.4,0.1c-0.1,0.1,0,0.3,0.1,0.4
				S51.7,67.7,51.8,67.6z M42.1,85.3c-0.3-0.2-0.6-0.1-0.7,0.2c-0.2,0.3-0.1,0.6,0.2,0.7c0.3,0.2,0.6,0.1,0.7-0.2
				C42.4,85.7,42.4,85.4,42.1,85.3z M47.6,66.1L38,82.5l8.5,4.9l9.6-16.4L47.6,66.1z M46.3,86.7l-7.5-4.4l9.1-15.5l7.5,4.4
				L46.3,86.7z"/>
		</g>
	</g>
	<g id="Shadows_28_" opacity="0.102">
		<g>
			<path d="M46.5,86.3L39,81.9l-0.3,0.5l7.5,4.4L46.5,86.3z M36.7,83.7l9.4,5.5l0.3-0.5L37,83.2L36.7,83.7z"/>
		</g>
	</g>
	<g id="Outline_28_">
		<g>
			<path fill="#DCDAD2" d="M57,68.4L49.5,64c-1-0.6-2.4-0.3-3,0.8L36.3,82.2c-0.6,1-0.3,2.4,0.8,3l7.5,4.4c1,0.6,2.4,0.3,3-0.8
				l10.2-17.4C58.4,70.4,58,69,57,68.4z M56.8,70.9L46.7,88.2c-0.3,0.5-1,0.7-1.5,0.4l-7.5-4.4c-0.5-0.3-0.7-1-0.4-1.5l10.2-17.4
				c0.3-0.5,1-0.7,1.5-0.4l7.5,4.4C56.9,69.7,57.1,70.3,56.8,70.9z"/>
		</g>
	</g>
</g>
<g>
	<g id="Inner_Lines_1_21_">
		<g>
			<path fill="#DCDAD2" d="M98.3,117.3c1-0.3,1.6-1.4,1.3-2.4s-1.4-1.6-2.4-1.3c-1,0.3-1.6,1.4-1.3,2.4
				C96.2,117,97.3,117.6,98.3,117.3z M97.4,114c0.8-0.2,1.6,0.2,1.8,1c0.2,0.8-0.2,1.6-1,1.8c-0.8,0.2-1.6-0.2-1.8-1
				C96.2,115.1,96.6,114.3,97.4,114z M93.1,111.5l4.4,15.2l0.5-0.1l-4.4-15.2L93.1,111.5z M100.6,121.6c-0.1-0.5-0.7-0.8-1.2-0.7
				c-0.5,0.1-0.8,0.7-0.7,1.2c0.1,0.5,0.7,0.8,1.2,0.7C100.4,122.7,100.7,122.1,100.6,121.6z M99.8,122.3c-0.3,0.1-0.5-0.1-0.6-0.3
				c-0.1-0.3,0.1-0.5,0.3-0.6c0.3-0.1,0.5,0.1,0.6,0.3C100.2,122,100,122.3,99.8,122.3z M92.7,113.6c-0.1-0.5-0.7-0.8-1.2-0.7
				l-12.9,3.7c-0.5,0.1-0.8,0.7-0.7,1.2l3.3,11.5c0.1,0.5,0.7,0.8,1.2,0.7l12.9-3.7c0.5-0.1,0.8-0.7,0.7-1.2L92.7,113.6z
				 M95.3,125.9l-12.9,3.7c-0.3,0.1-0.5-0.1-0.6-0.3l-3.3-11.5c-0.1-0.3,0.1-0.5,0.3-0.6l12.9-3.7c0.3-0.1,0.5,0.1,0.6,0.3l3.3,11.5
				C95.7,125.5,95.5,125.8,95.3,125.9z M99.1,120c0.5-0.1,0.8-0.7,0.7-1.2c-0.1-0.5-0.7-0.8-1.2-0.7s-0.8,0.7-0.7,1.2
				C98.1,119.9,98.6,120.2,99.1,120z M98.4,119.2l0.9-0.3c0.1,0.3-0.1,0.5-0.3,0.6C98.7,119.7,98.4,119.5,98.4,119.2z"/>
		</g>
	</g>
	<g id="Shadows_36_" opacity="0.102">
		<g>
			<path fill="#DCDAD2" d="M98.4,117.7c1-0.3,1.6-1.4,1.3-2.4c0-0.1-0.1-0.2-0.1-0.2c0.1,0.9-0.4,1.9-1.4,2.1
				c-0.9,0.3-1.9-0.2-2.3-1.1c0,0.1,0,0.2,0.1,0.2C96.3,117.4,97.4,118,98.4,117.7z M99.1,120c-0.4,0.1-0.9-0.1-1.1-0.4
				c0,0.1,0,0.2,0,0.2c0.1,0.5,0.7,0.8,1.2,0.7c0.5-0.1,0.8-0.7,0.7-1.2c0-0.1-0.1-0.2-0.1-0.2C99.8,119.5,99.5,119.9,99.1,120z
				 M98.8,122.4c0,0.1,0,0.2,0,0.2c0.1,0.5,0.7,0.8,1.2,0.7s0.8-0.7,0.7-1.2c0-0.1-0.1-0.2-0.1-0.2c0,0.4-0.3,0.8-0.7,0.9
				C99.5,122.9,99,122.7,98.8,122.4z M92.6,114.7l-0.3-0.9c-0.1-0.3-0.3-0.4-0.6-0.3l-12.9,3.7c-0.3,0.1-0.4,0.3-0.3,0.6l0.3,0.9
				c-0.1-0.3,0.1-0.5,0.3-0.6l12.9-3.7C92.2,114.3,92.5,114.4,92.6,114.7z M103,123.2l-0.1-0.5c0.3,1-0.3,2.1-1.3,2.4l-18.9,5.5
				c-1,0.3-2.1-0.3-2.4-1.3l0.1,0.5c0.3,1,1.4,1.6,2.4,1.3l18.9-5.5C102.7,125.2,103.3,124.2,103,123.2z"/>
		</g>
	</g>
	<g id="White_17_" opacity="0.251">
		<g>
			<path fill="#DCDAD2" d="M83.5,118c-0.1,0-0.1,0.1-0.1,0.1h0l-1.6,3c0,0.1,0,0.1,0,0.2c0,0.1,0.2,0.2,0.3,0.2
				c0.1,0,0.1-0.1,0.1-0.1l1.6-3c0-0.1,0-0.1,0-0.2C83.8,118.1,83.7,118,83.5,118z M82.1,118.4c0-0.1-0.2-0.2-0.3-0.2
				c-0.1,0-0.1,0.1-0.1,0.1l-0.7,1.2c0,0.1,0,0.1,0,0.2c0,0.1,0.2,0.2,0.3,0.2c0.1,0,0.1-0.1,0.1-0.1l0.7-1.2
				C82.1,118.6,82.2,118.5,82.1,118.4z"/>
		</g>
	</g>
	<g id="Outline_37_">
		<g>
			<path fill="#DCDAD2" d="M103.9,122.9l-3.3-11.5c-0.4-1.5-2-2.4-3.6-2l-8.3,2.4l2.7-4.9c0.1-0.1,0.1-0.2,0-0.4
				c-0.1-0.3-0.3-0.4-0.6-0.3c-0.1,0-0.2,0.1-0.3,0.2l-3.1,5.5l-9.1-5c-0.1-0.1-0.2-0.1-0.4,0c-0.3,0.1-0.4,0.3-0.3,0.6
				c0,0.1,0.1,0.2,0.2,0.3l8.5,4.7l-8.3,2.4c-1.5,0.4-2.4,2-2,3.6l3.3,11.5c0.4,1.5,2,2.4,3.6,2l18.9-5.4
				C103.5,126,104.4,124.4,103.9,122.9z M101.7,125.5L82.8,131c-1,0.3-2.1-0.3-2.4-1.3l-3.3-11.5c-0.3-1,0.3-2.1,1.3-2.4l18.9-5.5
				c1-0.3,2.1,0.3,2.4,1.3l3.3,11.5C103.3,124.2,102.7,125.2,101.7,125.5z"/>
		</g>
	</g>
</g>
<g>
	<g id="Inner_Lines_1_26_">
		<g>
			<path fill="#DCDAD2" d="M94.3,54.2c-0.1-0.3-0.4-0.6-0.7-0.6l-3.2-0.5L88.9,50c-0.2-0.3-0.5-0.5-0.8-0.5c-0.4,0-0.7,0.2-0.8,0.5
				l-1.4,3.1l-3.2,0.5c-0.3,0.1-0.6,0.3-0.7,0.6c-0.1,0.3,0,0.7,0.2,0.9l2.4,2.4L83.9,61c0,0.3,0,0.5,0.2,0.7
				c0.2,0.2,0.4,0.3,0.7,0.3c0.2,0,0.3,0,0.4-0.1l2.8-1.6l2.8,1.6c0.1,0.1,0.3,0.1,0.4,0.1c0.3,0,0.5-0.1,0.7-0.3
				c0.2-0.2,0.3-0.5,0.2-0.7l-0.6-3.4l2.4-2.4C94.4,54.9,94.4,54.5,94.3,54.2z M93.8,54.8l-2.4,2.4l-0.2,0.2l0,0.2l0.6,3.4
				c0,0.1,0,0.3-0.1,0.4c-0.1,0.1-0.2,0.2-0.4,0.2c-0.1,0-0.2,0-0.2-0.1l-2.8-1.6l-0.2-0.1l-0.2,0.1L85,61.5c-0.1,0-0.2,0.1-0.2,0.1
				c-0.1,0-0.3-0.1-0.4-0.2c-0.1-0.1-0.1-0.2-0.1-0.4l0.6-3.4l0-0.2l-0.2-0.2l-2.4-2.4c-0.1-0.1-0.2-0.3-0.1-0.5s0.2-0.3,0.4-0.3
				l3.2-0.5l0.2,0l0.1-0.2l1.4-3.1c0.1-0.2,0.2-0.3,0.4-0.3c0.2,0,0.4,0.1,0.4,0.3l1.4,3.1l0.1,0.2l0.2,0l3.2,0.5
				c0.2,0,0.3,0.1,0.4,0.3C94,54.5,93.9,54.7,93.8,54.8z"/>
		</g>
	</g>
	<g id="Inner_Lines_2_23_" opacity="0.251">
		<g>
			<path fill="#DCDAD2" d="M88.1,46.1c-5.6,0-10.1,4.5-10.1,10.1s4.5,10.1,10.1,10.1c5.6,0,10.1-4.5,10.1-10.1S93.7,46.1,88.1,46.1z
				 M88.1,65.8c-5.3,0-9.6-4.3-9.6-9.6c0-5.3,4.3-9.6,9.6-9.6c5.3,0,9.6,4.3,9.6,9.6C97.7,61.5,93.4,65.8,88.1,65.8z"/>
		</g>
	</g>
	<g id="Shadows_41_" opacity="0.102">
		<g>
			<path fill="#DCDAD2" d="M91.3,57.3L91.3,57.3l2.5-2.5c0.1-0.1,0.2-0.3,0.1-0.5c0,0,0,0,0-0.1c0,0,0,0.1-0.1,0.1l-2.4,2.4L91.3,57
				l0,0.2L91.3,57.3z M84.4,61c0,0-0.1-0.1-0.1-0.1l0,0.2c0,0.1,0,0.3,0.1,0.4c0.1,0.1,0.2,0.2,0.4,0.2c0.1,0,0.2,0,0.2-0.1l2.8-1.6
				l0.2-0.1l0.2,0.1l2.8,1.6c0.1,0,0.2,0.1,0.2,0.1c0.1,0,0.3-0.1,0.4-0.2c0.1-0.1,0.1-0.2,0.1-0.4l0-0.2c0,0,0,0.1-0.1,0.1
				c-0.1,0.1-0.2,0.2-0.4,0.2c-0.1,0-0.2,0-0.2-0.1l-2.8-1.6l-0.2-0.1l-0.2,0.1L85,61.1c-0.1,0-0.2,0.1-0.2,0.1
				C84.7,61.1,84.5,61.1,84.4,61z M91.9,58.3l2.2-2.3c0.2-0.2,0.3-0.6,0.2-0.9c0-0.1,0-0.1-0.1-0.1c0,0.1-0.1,0.1-0.1,0.2l-2.4,2.4
				L91.9,58.3z M91.4,62c-0.2,0-0.3,0-0.4-0.1l-2.8-1.6l-2.8,1.6C85.1,62,85,62,84.8,62c-0.3,0-0.5-0.1-0.7-0.3
				C84,61.6,84,61.5,84,61.5l-0.1,0.4c0,0.3,0,0.5,0.2,0.7c0.2,0.2,0.4,0.3,0.7,0.3c0.2,0,0.3,0,0.4-0.1l2.8-1.6l2.8,1.6
				c0.1,0.1,0.3,0.1,0.4,0.1c0.3,0,0.5-0.1,0.7-0.3c0.2-0.2,0.3-0.5,0.2-0.7l-0.1-0.4c0,0.1-0.1,0.2-0.1,0.2
				C91.9,61.9,91.7,62,91.4,62z M99.1,56c-0.1,6-5,10.7-11,10.7s-10.8-4.8-11-10.7c0,0.1,0,0.1,0,0.2c0,6.1,4.9,11,11,11
				c6.1,0,11-4.9,11-11C99.1,56.1,99.1,56.1,99.1,56z M84.3,58.3l0.1-0.8l-2.4-2.4C82,55.1,82,55,82,54.9c0,0-0.1,0.1-0.1,0.1
				c-0.1,0.3,0,0.7,0.2,0.9L84.3,58.3z M84.8,57.2L84.8,57.2l0.1-0.1l0-0.2l-0.2-0.2l-2.4-2.4c0,0-0.1-0.1-0.1-0.1c0,0,0,0,0,0.1
				c-0.1,0.2,0,0.4,0.1,0.5L84.8,57.2z"/>
		</g>
	</g>
	<g id="Outline_42_">
		<g>
			<path fill="#DCDAD2" d="M88.1,44.3c-6.6,0-11.9,5.3-11.9,11.9s5.3,11.9,11.9,11.9c6.6,0,11.9-5.3,11.9-11.9S94.7,44.3,88.1,44.3z
				 M88.1,67.2c-6.1,0-11-4.9-11-11c0-6.1,4.9-11,11-11c6.1,0,11,4.9,11,11C99.1,62.3,94.2,67.2,88.1,67.2z"/>
		</g>
	</g>
</g>
<g>
	<g id="Yellow_16_">
		<g>
			<path fill="#DCDAD2" d="M50.2,135.3l-0.1-0.4l-14.9,3.7l0.1,0.4c0.1,0.5,0.6,0.7,1,0.6l13.3-3.3
				C50.1,136.2,50.3,135.7,50.2,135.3z"/>
		</g>
	</g>
	<g id="Shadows_32_" opacity="0.102">
		<g>
			<path fill="#DCDAD2" d="M50.2,135.3l-0.1-0.4c0.1,0.5-0.2,0.9-0.6,1l-13.3,3.3c-0.5,0.1-0.9-0.2-1-0.6l0.1,0.4
				c0.1,0.5,0.6,0.7,1,0.6l13.3-3.3C50.1,136.2,50.3,135.7,50.2,135.3z M48,126.1l-0.3-1.1l-8.6-3.9l0,0c-0.1,0-0.2-0.1-0.3,0
				c-0.1,0-0.2,0.1-0.2,0.2l0,0l-5.8,7.4l0.3,1.1l6-7.7L48,126.1z"/>
		</g>
	</g>
	<g id="Inner_Lines_1_20_">
		<g>
			<path fill="#DCDAD2" d="M43,133.7c-0.1,0-0.2,0.1-0.2,0.3c0,0.1,0.1,0.2,0.3,0.2c0.1,0,0.2-0.1,0.2-0.3
				C43.3,133.8,43.1,133.7,43,133.7z M50,134.4l-4.6,1.1l0.1,0.4l4.6-1.1L50,134.4z"/>
		</g>
	</g>
	<g id="Inner_Lines_2_18_" opacity="0.149">
		<g>
			<path fill="#DCDAD2" d="M37.3,129.2l-1,0.3c-0.1,0-0.2,0.1-0.2,0.3s0.1,0.2,0.3,0.2l1-0.3c0.1,0,0.2-0.1,0.2-0.3
				C37.5,129.3,37.4,129.2,37.3,129.2z M40.5,124.5l-0.6,0.2c-0.1,0-0.2,0.1-0.2,0.3c0,0.1,0.1,0.2,0.3,0.2l0.6-0.2
				c0.1,0,0.2-0.1,0.2-0.3S40.6,124.4,40.5,124.5z M30,127.3l0.8,3.3l0.4-0.1l-0.8-3.3L30,127.3z M36.7,128.5c0-0.1-0.1-0.2-0.3-0.2
				l-1.7,0.4c-0.1,0-0.2,0.1-0.2,0.3s0.1,0.2,0.3,0.2l1.7-0.4C36.6,128.7,36.7,128.6,36.7,128.5z M36.3,134.3l-0.8,0.2
				c-0.1,0-0.2,0.1-0.2,0.3c0,0.1,0.1,0.2,0.3,0.2l0.8-0.2c0.1,0,0.2-0.1,0.2-0.3S36.4,134.3,36.3,134.3z M49.5,122.5l-0.4,0.1
				l0.8,3.3l0.4-0.1L49.5,122.5z M44,126.9l-1.2,0.3c-0.1,0-0.2,0.1-0.2,0.3c0,0.1,0.1,0.2,0.3,0.2l1.2-0.3c0.1,0,0.2-0.1,0.2-0.3
				C44.2,126.9,44.1,126.9,44,126.9z M47.6,129.3l-1.7,0.4c-0.1,0-0.2,0.1-0.2,0.3c0,0.1,0.1,0.2,0.3,0.2l1.7-0.4
				c0.1,0,0.2-0.1,0.2-0.3C47.9,129.3,47.8,129.3,47.6,129.3z M47.2,132.7l-0.8,0.2c-0.1,0-0.2,0.1-0.2,0.3c0,0.1,0.1,0.2,0.3,0.2
				l0.8-0.2c0.1,0,0.2-0.1,0.2-0.3C47.4,132.8,47.3,132.7,47.2,132.7z"/>
		</g>
	</g>
	<g id="Outline_33_">
		<g>
			<path fill="#DCDAD2" d="M51.8,126.3l-0.8-3.3c0-0.1-0.1-0.2-0.2-0.3l0,0L38,116.8l0,0c-0.1,0-0.2-0.1-0.3,0
				c-0.1,0-0.2,0.1-0.2,0.2l0,0L29,128.1l0,0c-0.1,0.1-0.1,0.2-0.1,0.4l0.8,3.3c0.1,0.2,0.3,0.4,0.5,0.3c0.1,0,0.2-0.1,0.2-0.2l0,0
				l1.6-2.1l2.3,9.4c0.2,0.9,1.2,1.5,2.1,1.2l3.7-0.9l5.8-1.4l3.7-0.9c0.9-0.2,1.5-1.2,1.2-2.1l-2.3-9.4l2.4,1.1l0,0
				c0.1,0,0.2,0.1,0.3,0C51.7,126.8,51.8,126.5,51.8,126.3z M40.9,138.5L39,131l4.1-1l1.8,7.5L40.9,138.5z M50.2,135.3
				c0.1,0.5-0.2,0.9-0.6,1l-3.7,0.9l-1.8-7.5c-0.1-0.5-0.6-0.7-1-0.6l-4.1,1c-0.5,0.1-0.7,0.6-0.6,1l1.8,7.5l-3.7,0.9
				c-0.5,0.1-0.9-0.2-1-0.6l-2.5-10l6-7.7l8.9,4L50.2,135.3z M38.9,120.3L38.9,120.3c-0.1,0-0.2-0.1-0.3,0c0,0-0.1,0-0.1,0.1
				c0,0,0,0,0,0c0,0-0.1,0.1-0.1,0.1l0,0l-8,10.2l-0.6-2.3l8.1-10.7l12.2,5.7l0.6,2.3L38.9,120.3z"/>
		</g>
	</g>
</g>
<g>
	<g id="Inner_Lines_2_17_" opacity="0.251">
		<g>
			<path fill="#DCDAD2" d="M28.5,20.6c-1.4-1-3.4-0.6-4.4,0.9c-1,1.4-0.6,3.4,0.9,4.4c1.4,1,3.4,0.6,4.4-0.9
				C30.3,23.5,29.9,21.5,28.5,20.6z M29,24.7c-0.8,1.2-2.5,1.6-3.7,0.7c-1.2-0.8-1.6-2.5-0.7-3.7s2.5-1.6,3.7-0.7
				C29.5,21.8,29.8,23.5,29,24.7z M24.5,26.5c-2.4-1.6-5.7-1-7.4,1.4c0.1,0.2,0.1,0.3,0.2,0.5c0-0.1,0.1-0.1,0.1-0.2
				c1.5-2.3,4.6-2.9,6.9-1.3c2.3,1.5,2.9,4.6,1.3,6.9c0,0.1-0.1,0.1-0.1,0.1c0.2,0,0.4,0,0.5,0C27.6,31.5,26.9,28.2,24.5,26.5z"/>
		</g>
	</g>
	<g id="Inner_Lines_1_19_">
		<g>
			<path fill="#DCDAD2" d="M31.3,16.5c-4.4-3-10.4-1.8-13.4,2.6c-3,4.4-1.8,10.4,2.6,13.4c4.4,3,10.4,1.8,13.4-2.6
				C36.9,25.5,35.7,19.4,31.3,16.5z M20.7,32.1c-2-1.3-3.3-3.3-3.8-5.4c1.6-1.7,4-2.3,6.2-1.7c0,0,0,0,0,0c0,0,0,0,0,0c0,0,0,0,0,0
				c-0.1-0.1-0.1-0.3-0.2-0.4c-0.4-1.1-0.3-2.5,0.5-3.5c1.2-1.9,3.8-2.3,5.6-1.1c1.9,1.2,2.3,3.8,1.1,5.6c-0.7,1.1-1.9,1.7-3.1,1.8
				c-0.2,0-0.3,0-0.5,0c0,0,0,0-0.1,0c0,0,0,0,0,0c0,0,0,0,0,0c1.4,1.8,1.7,4.3,0.7,6.4C25,33.9,22.7,33.5,20.7,32.1z M33.5,29.6
				c-1.4,2.1-3.5,3.4-5.8,3.9c0.8-1.9,0.6-4.1-0.4-5.9c1.2-0.2,2.4-0.8,3.2-1.9c1.4-2.1,0.8-4.9-1.2-6.2s-4.9-0.8-6.2,1.2
				c-0.8,1.1-0.9,2.5-0.6,3.7c-2-0.3-4.1,0.4-5.6,1.8c-0.4-2.3,0-4.7,1.4-6.8c2.8-4.2,8.6-5.3,12.8-2.5
				C35.2,19.7,36.4,25.4,33.5,29.6z"/>
		</g>
	</g>
	<g id="Shadows_30_" opacity="0.102">
		<g>
			<path fill="#DCDAD2" d="M20,33.3c-5-3.4-6.4-10.1-3.1-15.1c0,0.1-0.1,0.1-0.1,0.2c-3.4,5-2.1,11.9,3,15.3c5,3.4,11.9,2.1,15.3-3
				c0-0.1,0.1-0.1,0.1-0.2C31.7,35.3,25,36.6,20,33.3z M30.5,17.6c4.1,2.8,5.3,8.2,2.7,12.4c0.1-0.1,0.2-0.2,0.3-0.4
				c2.8-4.2,1.7-10-2.5-12.8c-4.2-2.8-10-1.7-12.8,2.5c-0.1,0.1-0.2,0.3-0.2,0.4C20.9,15.8,26.4,14.8,30.5,17.6z"/>
		</g>
	</g>
	<g id="Outline_31_">
		<g>
			<path fill="#DCDAD2" d="M32.5,14.6c-5.5-3.7-12.9-2.2-16.5,3.2c-3.7,5.5-2.2,12.9,3.2,16.5c5.5,3.7,12.9,2.2,16.5-3.2
				C39.4,25.7,38,18.3,32.5,14.6z M35,30.6c-3.4,5-10.2,6.4-15.3,3c-5-3.4-6.4-10.2-3-15.3c3.4-5,10.2-6.4,15.3-3
				C37.1,18.7,38.4,25.6,35,30.6z"/>
		</g>
	</g>
</g>
<g>
	<g id="White_2" opacity="0.149">
		<g>
			<path fill="#DCDAD2" d="M107,22.6l-1.7,1l0.8,1.4l1.7-1L107,22.6z M107.2,27l0.8,1.4l1.7-1l-0.8-1.4L107.2,27z M105,19.1l-1.7,1
				l0.9,1.5l1.7-1L105,19.1z M113.3,18.8l-1.7,1l0.9,1.5l1.7-1L113.3,18.8z M115,17l-0.5-0.8l-1.7,1l0.5,0.8L115,17z M115.6,26.7
				l0.8,1.4l1.7-1l-0.8-1.4L115.6,26.7z M124.8,19.3l-1.7,1l0.8,1.4l1.7-1L124.8,19.3z M126.7,22.7l-1.7,1l0.9,1.5l1.7-1L126.7,22.7
				z M115.3,22.4l-1.7,1l0.8,1.4l1.7-1L115.3,22.4z M122.8,15.9l-1.7,1l0.8,1.4l1.7-1L122.8,15.9z"/>
		</g>
	</g>
	<g id="White_1" opacity="0.251">
		<g>
			<path fill="#DCDAD2" d="M115.6,18.5c0,0-0.1,0.1-0.1,0.1l-0.3,1.1c0,0,0,0.1,0,0.1c0.1,0.1,0.2,0.1,0.3,0.1c0,0,0.1-0.1,0.1-0.1
				l0.3-1.1c0,0,0-0.1,0-0.1C115.8,18.4,115.7,18.4,115.6,18.5z M108.5,18.2c0,0-0.1,0.1-0.1,0.1l-0.7,2.6c0,0,0,0.1,0,0.1
				c0.1,0.1,0.2,0.1,0.3,0.1c0,0,0.1-0.1,0.1-0.1l0.7-2.6c0,0,0-0.1,0-0.1C108.7,18.2,108.6,18.2,108.5,18.2z M107.2,18.7
				c0,0-0.1,0.1-0.1,0.1l-0.3,1.1c0,0,0,0.1,0,0.1c0.1,0.1,0.2,0.1,0.3,0.1c0,0,0.1-0.1,0.1-0.1l0.3-1.1c0,0,0-0.1,0-0.1
				C107.5,18.7,107.3,18.7,107.2,18.7z M124,24.2c-0.1-0.1-0.2-0.1-0.3-0.1c0,0-0.1,0.1-0.1,0.1l-0.3,1.1c0,0,0,0.1,0,0.1
				c0.1,0.1,0.2,0.1,0.3,0.1c0,0,0.1-0.1,0.1-0.1l0.3-1.1C124,24.3,124,24.3,124,24.2z M116.9,18c0,0-0.1,0.1-0.1,0.1l-0.7,2.6h0
				c0,0,0,0.1,0,0.1c0.1,0.1,0.2,0.1,0.3,0.1c0,0,0.1-0.1,0.1-0.1l0.7-2.6c0,0,0-0.1,0-0.1C117.1,17.9,117,17.9,116.9,18z M122.9,23
				c0,0-0.1,0.1-0.1,0.1l-0.7,2.6c0,0,0,0.1,0,0.1c0.1,0.1,0.2,0.1,0.3,0.1c0,0,0.1-0.1,0.1-0.1l0.7-2.6c0,0,0-0.1,0-0.1
				C123.1,23,123,23,122.9,23z"/>
		</g>
	</g>
	<g id="Inner_Lines_2_10_" opacity="0.102">
		<g>
			<path fill="#DCDAD2" d="M111.6,21.4l-3.7,2.1l0.2,0.3l3.7-2.1L111.6,21.4z M108.3,24.1l0.2,0.3l3.7-2.1L112,22L108.3,24.1z
				 M122.7,20.4l-6.1,3.4l0.2,0.3l6.1-3.4L122.7,20.4z M122.3,19.8l-6.1,3.4l0.2,0.3l6.1-3.4L122.3,19.8z"/>
		</g>
	</g>
	<g id="Inner_Lines_1_12_">
		<g>
			<path fill="#DCDAD2" d="M113.3,18l-0.5-0.8l1.7-1l-0.2-0.3l-1.7,1l-0.9-1.5l-0.3,0.2l1.5,2.7L113.3,18z M126.7,22.7l-0.2-0.3
				l-1.7,1l-0.8-1.4l1.7-1l-0.2-0.3l-1.7,1l-0.8-1.4l1.7-1l-0.2-0.3l-1.7,1l-0.8-1.4l1.7-1l-0.2-0.3l-1.7,1l-0.8-1.4l1.7-1l-0.2-0.3
				l-1.7,1l-0.9-1.5l-0.3,0.2l2.8,4.9l-6.1,3.4l-2.8-4.9l-0.3,0.2l0.9,1.5l-1.7,1l0.2,0.3l1.7-1l0.8,1.4l-1.7,1l0.2,0.3l1.7-1
				l0.8,1.4l-1.7,1l0.2,0.3l1.7-1l0.8,1.4l-1.7,1l0.2,0.3l1.7-1l0.8,1.4l-1.7,1l0.2,0.3l1.7-1l0.9,1.5l0.3-0.2l-2.8-4.9l6.1-3.4
				l2.8,4.9l0.3-0.2l-0.9-1.5L126.7,22.7z M111.8,21.7l-3.7,2.1l-2.8-4.9l-0.3,0.2l0.9,1.5l-1.7,1l0.2,0.3l1.7-1l0.8,1.4l-1.7,1
				l0.2,0.3l1.7-1l0.8,1.4l-1.7,1l0.2,0.3l1.7-1l0.8,1.4l-1.7,1l0.2,0.3l1.7-1l0.8,1.4l-1.7,1l0.2,0.3l1.7-1l0.9,1.5l0.3-0.2
				l-2.8-4.9L112,22L111.8,21.7z"/>
		</g>
	</g>
	<g id="Shadows_19_" opacity="0.102">
		<g>
			<path fill="#DCDAD2" d="M111.3,19.1L115,17l-0.4-0.7l-3.7,2.1c-0.7,0.4-1,1.4-0.6,2.1l3.6,6.4l-5.1,2.9l0.2,0.3l5.1-2.9l0.7-0.4
				l-0.2-0.3l-3.6-6.4C110.8,19.8,110.9,19.3,111.3,19.1z M127.3,23.9l-10.1,5.7l0.2,0.3l10.1-5.7L127.3,23.9z"/>
		</g>
	</g>
	<g id="Outline_19_">
		<g>
			<path fill="#DCDAD2" d="M128.2,23.8l-5.7-10.1c-0.2-0.4-0.7-0.5-1.1-0.3l-5.7,3.3l-1.5-2.7c-0.2-0.4-0.7-0.5-1.1-0.3l-10.1,5.7
				c-0.4,0.2-0.5,0.7-0.3,1.1l5.7,10.1c0.2,0.4,0.7,0.5,1.1,0.3l5.7-3.3l1.5,2.7c0.2,0.4,0.7,0.5,1.1,0.3l10.1-5.7
				C128.3,24.7,128.4,24.2,128.2,23.8z M109.1,30.2l-5.7-10.1l10.1-5.7L115,17l-3.7,2.1c-0.4,0.2-0.5,0.7-0.3,1.1l3.8,6.8
				L109.1,30.2z M117.4,29.9l-5.7-10.1l10.1-5.7l5.7,10.1L117.4,29.9z"/>
		</g>
	</g>
</g>
<g>
	<g id="Shadows_43_" opacity="0.102">
		<g>
			<path fill="#DCDAD2" d="M115.1,83.4L115.1,83.4L115.1,83.4c0.1-0.1,0.1-0.1,0.1-0.2c0-0.2-0.1-0.4-0.3-0.4l-4.1-1l-0.2,0.3l4.2,1
				C115,83.2,115.1,83.3,115.1,83.4z M120.4,81.3L112,89l-0.3,0.6l9-8.2L120.4,81.3z"/>
		</g>
	</g>
	<g id="Outline_48_">
		<g>
			<path fill="#DCDAD2" d="M121.5,80.8l-3.9-0.9l2.6-4.3l0,0c0,0,0-0.1,0-0.1c0-0.2-0.1-0.4-0.3-0.4l-4.4-1c-0.1,0-0.3,0-0.4,0.1
				l0,0l-5.5,8l0,0c0,0,0,0.1-0.1,0.1c0,0.2,0.1,0.4,0.3,0.4l4.3,1l-4.3,7.4l0,0c0,0,0,0.1,0,0.1c0,0.2,0.1,0.4,0.3,0.4
				c0.1,0,0.2,0,0.3-0.1l0,0l11.2-10.2l0,0c0,0,0.1-0.1,0.1-0.2C121.8,81,121.7,80.8,121.5,80.8z M115.1,83.7L115.1,83.7
				C115.1,83.6,115.1,83.6,115.1,83.7c0.1-0.3,0-0.5-0.2-0.5l-4.2-1l5-7.4l3.7,0.9l-2.6,4.3l0,0c0,0,0,0.1,0,0.1
				c0,0.2,0.1,0.4,0.3,0.4l3.8,0.9l-9,8.2L115.1,83.7z"/>
		</g>
	</g>
</g>
<g>
	<g id="White_15_">
		<g>
			<polygon fill="#DCDAD2" points="130.7,121.8 130.8,123.5 140.5,129.2 142.1,128.4 			"/>
		</g>
	</g>
	<g id="Shadows_42_" opacity="0.102">
		<g>
			<path fill="#DCDAD2" d="M139.2,127.9l-6.6-3.8c-0.7-0.4-1.1-1.1-1.2-1.8l-0.2-0.1c-0.1,0.9,0.3,1.9,1.2,2.4l6.6,3.8
				c0.9,0.5,1.9,0.4,2.7-0.1l-0.2-0.1C140.7,128.3,139.9,128.3,139.2,127.9z M130.9,121.4l11.4,6.6l0.2-0.4l-11.4-6.6L130.9,121.4z
				 M135.6,110.5l-0.5,0.8l14,8.1l0.5-0.8L135.6,110.5z"/>
		</g>
	</g>
	<g id="Inner_Lines_1_7_" opacity="0.251">
		<g>
			<path fill="#DCDAD2" d="M144,109.9c0.1,0,0.2-0.2,0.2-0.3c-0.1-0.4,0.1-0.8,0.5-0.9s0.8,0.1,0.9,0.5c0,0.1,0.2,0.2,0.3,0.2
				c0.1,0,0.2-0.2,0.2-0.3c-0.2-0.7-0.8-1-1.5-0.9c-0.7,0.2-1,0.8-0.9,1.5C143.8,109.8,143.9,109.9,144,109.9z M149.5,113.3
				c-0.2-0.7-0.8-1-1.5-0.9c-0.1,0-0.2,0.2-0.2,0.3c0,0.1,0.2,0.2,0.3,0.2c0.4-0.1,0.8,0.1,0.9,0.5c0.1,0.4-0.1,0.8-0.5,0.9
				c-0.1,0-0.2,0.2-0.2,0.3c0,0.1,0.2,0.2,0.3,0.2C149.3,114.6,149.7,114,149.5,113.3z M139.1,109.4c0.1,0,0.2-0.2,0.2-0.3
				c0-0.1,0-0.3,0.2-0.3c0.1,0,0.3,0,0.3,0.2s0.2,0.2,0.3,0.2c0.1,0,0.2-0.2,0.2-0.3c-0.1-0.4-0.5-0.6-0.9-0.5
				c-0.4,0.1-0.6,0.5-0.5,0.9C138.8,109.4,138.9,109.5,139.1,109.4z M142.3,114.4l-6.9,11.9l0.4,0.2l6.9-11.9L142.3,114.4z
				 M139.8,112.9l-6.4,12.1l0.4,0.2l6.4-12.1L139.8,112.9z M137.5,111.6l-6,12.3l0.4,0.2l6-12.3L137.5,111.6z M139.5,128.6l0.4,0.2
				l7.7-11.4l-0.4-0.2L139.5,128.6z M144.9,115.9l-7.3,11.6l0.4,0.2l7.3-11.6L144.9,115.9z"/>
		</g>
	</g>
	<g id="Inner_Lines_2_12_">
		<g>
			
				<rect x="136.3" y="118.5" transform="matrix(0.5007 -0.8656 0.8656 0.5007 -39.9254 180.5433)" fill="#DCDAD2" width="0.5" height="12.7"/>
		</g>
	</g>
	<g id="Outline_46_">
		<g>
			<path fill="#DCDAD2" d="M152.5,114.1c0.3-0.8,0.3-1.7-0.2-2.4c0.5-1.3,0-2.7-1.2-3.4c-0.3-0.2-0.6-0.3-0.9-0.3
				c-0.1-0.4-0.3-0.7-0.6-1c-0.1-0.9-0.6-1.7-1.4-2.2c-1-0.6-2.1-0.5-3,0.1c-1-0.4-2.1-0.1-2.9,0.6c-0.2,0-0.5,0-0.7,0
				c-0.2-0.2-0.5-0.5-0.7-0.6c-1.2-0.7-2.7-0.4-3.6,0.7c-1,0-1.9,0.5-2.4,1.4c-0.5,0.9-0.5,2,0.1,2.9l-4.7,11.2
				c-0.6,1.6,0,3.3,1.5,4.2l6.6,3.8c1.5,0.8,3.3,0.5,4.4-0.8l7.4-9.7c1,0,2-0.4,2.5-1.3C153.4,116.3,153.2,115,152.5,114.1z
				 M142.1,127.7c-0.8,0.9-2.1,1.2-3.1,0.6l-6.6-3.8c-1-0.6-1.5-1.9-1.1-3l4.5-10.8l13.4,7.7L142.1,127.7z M152,116.8
				c-0.5,0.8-1.6,1.1-2.4,0.6l-13-7.5c-0.9-0.5-1.2-1.6-0.7-2.4c0.4-0.7,1.3-1,2-0.8c0-0.1,0.1-0.2,0.1-0.2c0.5-0.8,1.6-1.1,2.4-0.6
				c0.4,0.2,0.6,0.6,0.8,0.9c0.5-0.3,1-0.3,1.6-0.1c0,0,0,0,0,0c0.5-0.8,1.6-1.1,2.4-0.6c0.1,0,0.1,0.1,0.2,0.1
				c0.5-0.7,1.5-0.9,2.3-0.5c0.7,0.4,1,1.1,0.9,1.8c0.5,0.3,0.8,0.9,0.8,1.5c0.4-0.1,0.8,0,1.2,0.2c0.9,0.5,1.2,1.6,0.7,2.4
				c0,0.1-0.1,0.2-0.2,0.2c0.6,0.6,0.7,1.5,0.3,2.2c-0.1,0.1-0.2,0.3-0.3,0.4c0,0,0,0,0.1,0C152.1,114.9,152.4,115.9,152,116.8z"/>
		</g>
	</g>
</g>
<g>
	<g id="Shadows_10_" opacity="0.102">
		<g>
			<path fill="#DCDAD2" d="M-7.1,127.9l-6.6-3.8c-0.7-0.4-1.1-1.1-1.2-1.8l-0.2-0.1c-0.1,0.9,0.3,1.9,1.2,2.4l6.6,3.8
				c0.9,0.5,1.9,0.4,2.7-0.1l-0.2-0.1C-5.6,128.3-6.4,128.3-7.1,127.9z M-15.4,121.4L-4,128l0.2-0.4l-11.4-6.6L-15.4,121.4z
				 M-10.8,110.5l-0.5,0.8l14,8.1l0.5-0.8L-10.8,110.5z"/>
		</g>
	</g>
	<g id="Inner_Lines_1_9_" opacity="0.251">
		<g>
			<path fill="#DCDAD2" d="M-2.3,109.9c0.1,0,0.2-0.2,0.2-0.3c-0.1-0.4,0.1-0.8,0.5-0.9s0.8,0.1,0.9,0.5c0,0.1,0.2,0.2,0.3,0.2
				c0.1,0,0.2-0.2,0.2-0.3c-0.2-0.7-0.8-1-1.5-0.9c-0.7,0.2-1,0.8-0.9,1.5C-2.6,109.8-2.4,109.9-2.3,109.9z M3.2,113.3
				c-0.2-0.7-0.8-1-1.5-0.9c-0.1,0-0.2,0.2-0.2,0.3c0,0.1,0.2,0.2,0.3,0.2c0.4-0.1,0.8,0.1,0.9,0.5c0.1,0.4-0.1,0.8-0.5,0.9
				c-0.1,0-0.2,0.2-0.2,0.3c0,0.1,0.2,0.2,0.3,0.2C3,114.6,3.4,114,3.2,113.3z M-7.3,109.4c0.1,0,0.2-0.2,0.2-0.3
				c0-0.1,0-0.3,0.2-0.3c0.1,0,0.3,0,0.3,0.2c0,0.1,0.2,0.2,0.3,0.2c0.1,0,0.2-0.2,0.2-0.3c-0.1-0.4-0.5-0.6-0.9-0.5
				c-0.4,0.1-0.6,0.5-0.5,0.9C-7.6,109.4-7.4,109.5-7.3,109.4z M-4,114.4l-6.9,11.9l0.4,0.2l6.9-11.9L-4,114.4z M-6.6,112.9L-13,125
				l0.4,0.2l6.4-12.1L-6.6,112.9z M-8.9,111.6l-6,12.3l0.4,0.2l6-12.3L-8.9,111.6z M-6.9,128.6l0.4,0.2l7.7-11.4l-0.4-0.2
				L-6.9,128.6z M-1.5,115.9l-7.3,11.6l0.4,0.2l7.3-11.6L-1.5,115.9z"/>
		</g>
	</g>
	<g id="Outline_11_">
		<g>
			<path fill="#DCDAD2" d="M9.8,114.1c0.3-0.8,0.3-1.7-0.2-2.4c0.5-1.3,0-2.7-1.2-3.4c-0.3-0.2-0.6-0.3-0.9-0.3
				c-0.1-0.4-0.3-0.7-0.6-1c-0.1-0.9-0.6-1.7-1.4-2.2c-1-0.6-2.1-0.5-3,0.1c-1-0.4-2.1-0.1-2.9,0.6c-0.2,0-0.5,0-0.7,0
				c-0.2-0.2-0.5-0.5-0.7-0.6c-1.2-0.7-2.7-0.4-3.6,0.7c-1,0-1.9,0.5-2.4,1.4c-0.5,0.9-0.5,2,0.1,2.9l-4.7,11.2
				c-0.6,1.6,0,3.3,1.5,4.2l6.6,3.8c1.5,0.8,3.3,0.5,4.4-0.8l7.4-9.7c1,0,2-0.4,2.5-1.3C10.7,116.3,10.5,115,9.8,114.1z M6.5,118.4
				l-7.1,9.3c-0.8,0.9-2.1,1.2-3.1,0.6l-6.6-3.8c-1-0.6-1.5-1.9-1.1-3l4.5-10.8l2.2,1.3l11,6.4l0,0L6.5,118.4z M9.2,116.8
				c-0.5,0.8-1.6,1.1-2.4,0.6l-13-7.5c-0.9-0.5-1.2-1.6-0.7-2.4c0.4-0.7,1.3-1,2-0.8c0-0.1,0.1-0.2,0.1-0.2c0.5-0.8,1.6-1.1,2.4-0.6
				c0.4,0.2,0.6,0.6,0.8,0.9c0.5-0.3,1-0.3,1.6-0.1c0,0,0,0,0,0c0.5-0.8,1.6-1.1,2.4-0.6c0.1,0,0.1,0.1,0.2,0.1
				c0.5-0.7,1.5-0.9,2.3-0.5c0.7,0.4,1,1.1,0.9,1.8c0.5,0.3,0.8,0.9,0.8,1.5c0.4-0.1,0.8,0,1.2,0.2c0.9,0.5,1.2,1.6,0.7,2.4
				c0,0.1-0.1,0.2-0.2,0.2c0.6,0.6,0.7,1.5,0.3,2.2c-0.1,0.1-0.2,0.3-0.3,0.4c0,0,0,0,0.1,0C9.4,114.9,9.7,115.9,9.2,116.8z"/>
		</g>
	</g>
</g>
<g>
	<g id="Red_4_">
		<g>
			<path fill="#DCDAD2" d="M74.2,28.4l-4.9-2.5c-0.1-0.1-0.2,0-0.3,0.1l-0.6,1.1c-0.4,0.7-0.1,1.6,0.6,2l3.8,2
				c0.1,0.1,0.2,0,0.3-0.1l1.2-2.3C74.3,28.6,74.3,28.4,74.2,28.4z"/>
		</g>
	</g>
	<g id="Blue_5_">
		<g>
			<path fill="#DCDAD2" d="M64.3,23.3l-4.9-2.5c-0.1-0.1-0.2,0-0.3,0.1L58,23.1c-0.1,0.1,0,0.2,0.1,0.3l3.8,2c0.7,0.4,1.6,0.1,2-0.6
				l0.6-1.1C64.5,23.5,64.5,23.4,64.3,23.3z"/>
		</g>
	</g>
	<g id="Shadows_23_" opacity="0.102">
		<g>
			<path fill="#DCDAD2" d="M61.7,25.5l-3.8-2c-0.2-0.1-0.3-0.4-0.2-0.6l-0.4,0.8c-0.1,0.2,0,0.5,0.2,0.6l3.8,2
				c0.8,0.4,1.9,0.1,2.3-0.7l0.4-0.8C63.6,25.7,62.6,26,61.7,25.5z M62.6,18.8l-3-1.6l-0.2,0.4l3,1.6L62.6,18.8z M64,24.8l0.2-0.4
				L64,24.8C64,24.8,64,24.8,64,24.8z M69,26.4l4.9,2.5l0.2-0.4L69.2,26L69,26.4z M59.1,21.3l4.9,2.5l0.2-0.4l-4.9-2.5L59.1,21.3z
				 M73.9,24.7l-0.2,0.4l3,1.6l0.2-0.4L73.9,24.7z"/>
		</g>
	</g>
	<g id="Inner_Lines_9_">
		<g>
			<path fill="#DCDAD2" d="M64.4,23.1l-4.9-2.5c-0.2-0.1-0.5,0-0.6,0.2L57.8,23c-0.1,0.2,0,0.5,0.2,0.6l3.8,2
				c0.8,0.4,1.9,0.1,2.3-0.7l0.6-1.1C64.7,23.5,64.7,23.2,64.4,23.1z M63.7,24.6c-0.3,0.6-1.1,0.9-1.7,0.5l-3.8-2l1.2-2.3l4.9,2.5
				L63.7,24.6z"/>
		</g>
	</g>
	<g id="Outline_23_">
		<g>
			<path fill="#DCDAD2" d="M77.7,27.8L77.7,27.8l-2.2-7.8l0,0c0-0.1-0.1-0.2-0.2-0.3c0,0-0.1,0-0.1,0l0,0L73.2,19l0,0
				c-0.2-0.1-0.4,0-0.5,0.2c-0.1,0.1-0.1,0.3,0,0.4l0,0l0.5,1.2l0.1,4.1l-10.4-5.4l3.4-2.3l1.3-0.2l0,0c0.1,0,0.2-0.1,0.3-0.2
				c0.1-0.2,0-0.4-0.1-0.5l0,0L66,14.8l0,0c0,0,0,0-0.1-0.1c-0.1-0.1-0.2-0.1-0.3,0l0,0l-7.7,2.7l0,0c-0.1,0-0.2,0.1-0.2,0.2
				l-0.6,1.1L54.9,23c-0.4,0.8-0.1,1.9,0.7,2.3c0,0,2.8,1.4,5.5,2.8c1.9,1,3-1.8,4.4-1.1c1.3,0.7-0.2,3.2,1.7,4.2
				c2.7,1.4,5.5,2.8,5.5,2.8c0.8,0.4,1.9,0.1,2.3-0.7l2.2-4.2l0,0l0.1-0.2l0.1-0.2l0,0l0.4-0.8C77.8,28,77.8,27.9,77.7,27.8z
				 M74,20.7L74,20.7c0-0.1,0-0.1,0-0.2l0,0l-0.2-0.4l1,0.3l1.7,6.1l-2.3-1.2L74,20.7z M59.7,17.8l6-2.1l0.8,0.6L66,16.3l0,0
				c-0.1,0-0.1,0-0.2,0.1l0,0L62,19L59.7,17.8z M74.2,33c-0.2,0.4-0.7,0.6-1.1,0.4l-5.5-2.8c-0.5-0.3-0.6-0.7-0.6-1.7
				c0-0.8,0-2-1.1-2.5c-1.1-0.6-2,0.1-2.7,0.6c-0.8,0.6-1.2,0.8-1.7,0.5L56,24.5c-0.4-0.2-0.6-0.7-0.4-1.1l2.2-4.2l0,0l0.2-0.4
				c0.2-0.4,0.7-0.6,1.1-0.4l17,8.8c0.4,0.2,0.6,0.7,0.4,1.1l-0.4-1.1L74.2,33z"/>
		</g>
	</g>
</g>
<g>
	<g id="Shadows_1_5_" opacity="0.102">
		<g>
			<path fill="#DCDAD2" d="M3,69l-4.4,2l0.2,0.3l4.4-2L3,69z M3.9,71l-4.4,2l0.2,0.3l0.2-0.1c0.2,0.1,0.5,0.2,0.8,0.2
				c0.8,0.1,1.4,0,1.6-0.1s0.7-0.5,1.2-1.2c0.2-0.3,0.3-0.6,0.4-0.8L4,71.3L3.9,71z M3.3,71.9c-0.4,0.6-0.9,1.1-1.2,1.2
				c-0.2,0.1-0.9,0.2-1.6,0.1c-0.1,0-0.2,0-0.3,0l3.2-1.4C3.4,71.7,3.4,71.8,3.3,71.9z M2.9,67.8l-0.2,0.1c-0.1-0.8,0-1.8,0.1-2.8
				c0.2-1.9,0.5-4-0.3-5.9c-1.2-2.7-4.6-3.7-7.6-2.4c2.6-1.2,5.7,0,6.9,2.7c0.8,1.9,0.7,3.9,0.6,5.8c-0.1,1.1,0.1,1.9,0.3,2.7L-2,70
				c-0.4-0.7-0.9-1.3-1.8-2c-1.5-1.1-3.1-2.4-3.9-4.3c-1.2-2.7,0-5.8,2.6-6.9c-3,1.3-4.4,4.6-3.3,7.2c0.8,1.9,2.6,3.1,4.2,4.2
				c0.9,0.6,1.7,1.2,2.2,1.8l-0.2,0.1l0.2,0.3L3,68.2L2.9,67.8z"/>
		</g>
	</g>
	<g id="Inner_Lines_26_">
		<g>
			<path fill="#DCDAD2" d="M3.5,69.2l-5.1,2.3l0.2,0.3l5.1-2.3L3.5,69.2z M4.4,71.2l-5.1,2.3l0.2,0.3l5.1-2.3L4.4,71.2z M-0.3,67.9
				l0.7,1.7c0,0.1,0.2,0.1,0.2,0.1c0.1,0,0.1-0.2,0.1-0.2L0,67.7l0.2-4.1l0,0c0,0,0-0.1,0-0.1c0-0.1-0.2-0.1-0.2-0.1
				c-0.1,0-0.1,0.1-0.1,0.2l0,0l-0.2,3.8L-3.3,65l0,0c-0.1,0-0.1-0.1-0.2,0c-0.1,0-0.1,0.2-0.1,0.2c0,0,0,0,0.1,0.1l0,0L-0.3,67.9z"
				/>
		</g>
	</g>
	<g id="Outline_47_">
		<g>
			<path fill="#DCDAD2" d="M4.6,70.7c-0.5-1-1.1-2.4-1.1-2.4c-0.8-1.7,1.2-6-0.4-9.5c-1.4-3-5.2-4.3-8.5-2.8c-3.4,1.5-5,5.2-3.6,8.2
				c1.5,3.5,6,4.9,6.8,6.6c0,0,0.6,1.4,1.1,2.4c0.5,1,2.9,1.1,3.8,0.7S5,71.7,4.6,70.7z M3.5,72.2c-0.4,0.6-0.9,1.1-1.2,1.2
				s-0.9,0.2-1.6,0.1c-0.7-0.1-1.1-0.3-1.2-0.5l-1.1-2.4C-2,69.7-3,69-4.2,68.2c-1.6-1.1-3.4-2.3-4.2-4.2c-1.2-2.7,0.3-5.9,3.3-7.2
				s6.4-0.3,7.6,2.4c0.8,1.9,0.6,4,0.3,5.9c-0.2,1.4-0.3,2.7,0.1,3.6L3.9,71C3.9,71.1,3.9,71.6,3.5,72.2z"/>
		</g>
	</g>
</g>
<g>
	<g id="Shadows_1_2_" opacity="0.102">
		<g>
			<path fill="#DCDAD2" d="M145.9,69l-4.4,2l0.2,0.3l4.4-2L145.9,69z M146.8,71l-4.4,2l0.2,0.3l0.2-0.1c0.2,0.1,0.5,0.2,0.8,0.2
				c0.8,0.1,1.4,0,1.6-0.1s0.7-0.5,1.2-1.2c0.2-0.3,0.3-0.6,0.4-0.8l0.2-0.1L146.8,71z M146.2,71.9c-0.4,0.6-0.9,1.1-1.2,1.2
				c-0.2,0.1-0.9,0.2-1.6,0.1c-0.1,0-0.2,0-0.3,0l3.2-1.4C146.3,71.7,146.2,71.8,146.2,71.9z M145.7,67.8l-0.2,0.1
				c-0.1-0.8,0-1.8,0.1-2.8c0.2-1.9,0.5-4-0.3-5.9c-1.2-2.7-4.6-3.7-7.6-2.4c2.6-1.2,5.7,0,6.9,2.7c0.8,1.9,0.7,3.9,0.6,5.8
				c-0.1,1.1,0.1,1.9,0.3,2.7l-4.6,2.1c-0.4-0.7-0.9-1.3-1.8-2c-1.5-1.1-3.1-2.4-3.9-4.3c-1.2-2.7,0-5.8,2.6-6.9
				c-3,1.3-4.4,4.6-3.3,7.2c0.8,1.9,2.6,3.1,4.2,4.2c0.9,0.6,1.7,1.2,2.2,1.8l-0.2,0.1l0.2,0.3l5.1-2.3L145.7,67.8z"/>
		</g>
	</g>
	<g id="Inner_Lines_4_">
		<g>
			<path fill="#DCDAD2" d="M146.3,69.2l-5.1,2.3l0.2,0.3l5.1-2.3L146.3,69.2z M147.2,71.2l-5.1,2.3l0.2,0.3l5.1-2.3L147.2,71.2z
				 M142.5,67.9l0.7,1.7c0,0.1,0.2,0.1,0.2,0.1c0.1,0,0.1-0.2,0.1-0.2l-0.7-1.7l0.2-4.1l0,0c0,0,0-0.1,0-0.1c0-0.1-0.2-0.1-0.2-0.1
				c-0.1,0-0.1,0.1-0.1,0.2l0,0l-0.2,3.8l-2.9-2.4l0,0c-0.1,0-0.1-0.1-0.2,0c-0.1,0-0.1,0.2-0.1,0.2c0,0,0,0,0.1,0.1l0,0L142.5,67.9
				z"/>
		</g>
	</g>
	<g id="Outline_13_">
		<g>
			<path fill="#DCDAD2" d="M147.4,70.7c-0.5-1-1.1-2.4-1.1-2.4c-0.8-1.7,1.2-6-0.4-9.5c-1.4-3-5.2-4.3-8.5-2.8
				c-3.4,1.5-5,5.2-3.6,8.2c1.5,3.5,6,4.9,6.8,6.6c0,0,0.6,1.4,1.1,2.4c0.5,1,2.9,1.1,3.8,0.7C146.3,73.6,147.9,71.7,147.4,70.7z
				 M146.3,72.2c-0.4,0.6-0.9,1.1-1.2,1.2s-0.9,0.2-1.6,0.1c-0.7-0.1-1.1-0.3-1.2-0.5l-1.1-2.4c-0.4-0.9-1.4-1.6-2.6-2.4
				c-1.6-1.1-3.4-2.3-4.2-4.2c-1.2-2.7,0.3-5.9,3.3-7.2s6.4-0.3,7.6,2.4c0.8,1.9,0.6,4,0.3,5.9c-0.2,1.4-0.3,2.7,0.1,3.6l1.1,2.4
				C146.8,71.1,146.7,71.6,146.3,72.2z"/>
		</g>
	</g>
</g>
</svg>
